<?xml version="1.0" standalone="no"?>
<!DOCTYPE svg PUBLIC "-//W3C//DTD SVG 20010904//EN"
 "http://www.w3.org/TR/2001/REC-SVG-20010904/DTD/svg10.dtd">
<svg version="1.0" xmlns="http://www.w3.org/2000/svg"
 width="120.000000pt" height="120.000000pt" viewBox="0 0 120.000000 120.000000"
 preserveAspectRatio="xMidYMid meet">

<g transform="translate(0.000000,120.000000) scale(0.100000,-0.100000)"
fill="#000000" stroke="none">
<path d="M475 1184 c-229 -49 -412 -235 -459 -466 -20 -97 -20 -139 0 -236 24
-119 75 -214 164 -302 88 -89 183 -140 302 -164 97 -20 139 -20 236 0 235 47
419 231 466 466 20 97 20 139 0 236 -47 235 -231 419 -466 466 -93 19 -151 19
-243 0z m389 -233 c3 -5 -37 -66 -89 -136 l-94 -128 37 -51 c20 -28 67 -91
104 -141 54 -73 64 -91 52 -98 -36 -20 -64 4 -162 136 -54 72 -101 137 -105
144 -7 11 157 244 191 271 18 14 58 16 66 3z m-489 -147 c13 -5 184 -226 218
-281 7 -11 -157 -244 -191 -271 -18 -14 -58 -16 -66 -3 -3 5 37 66 89 136 l94
128 -37 51 c-20 28 -67 91 -104 141 -46 61 -63 92 -55 97 15 9 30 10 52 2z"/>
</g>
</svg>
